<svg xmlns="http://www.w3.org/2000/svg" viewBox="0 0 100 100"><circle cx="50" cy="50" r="50" fill="#EAB300"/><path fill="#FFF" d="M68.5 45.4c1.9-2.3 2.9-5.1 2.9-8.4 0-3.1-1.1-5.7-3.3-7.8-2.2-2.1-5.2-3.1-9-3.1h-23v46.8H54c3.9 0 7.1-1 9.6-3 2.5-2 3.8-4.7 3.8-8.1 0-7.3-4.5-10.7-9.5-11.5 5.2-1.2 10.6-5.8 10.6-14.9zm-22.1-9.9h11.9c1.6 0 2.8.4 3.6 1.3.8.9 1.2 2 1.2 3.4 0 3-1.6 4.5-4.8 4.5h-12v-9.2h.1zm12.8 28.5H46.4v-10h12.5c1.8 0 3.2.5 4 1.4.9.9 1.3 2.1 1.3 3.6 0 1.6-.4 2.8-1.3 3.7-.8.9-2.3 1.3-4.5 1.3z" transform="rotate(14 50 50)"/></svg>
