<svg viewBox="0 0 100 100" xmlns="http://www.w3.org/2000/svg"><path d="M50 90C72.0914 90 90 72.0914 90 50C90 27.9086 72.0914 10 50 10C27.9086 10 10 27.9086 10 50C10 72.0914 27.9086 90 50 90ZM50 100C77.6142 100 100 77.6142 100 50C100 22.3858 77.6142 0 50 0C22.3858 0 0 22.3858 0 50C0 77.6142 22.3858 100 50 100Z" fill="#EAB300"/><path d="M72.5 48.5C72.5 46.7 71.9 45.1 70.7 43.8C69.5 42.5 67.8 41.7 65.7 41.3C67.2 40.6 68.4 39.5 69.2 38.1C70 36.7 70.4 35.1 70.4 33.3C70.4 30.5 69.4 28.2 67.4 26.4C65.4 24.6 62.6 23.7 59.1 23.7H41.8V56.3H60C63.2 56.3 65.7 55.6 67.6 54.1C69.5 52.6 70.5 50.7 70.5 48.5H72.5ZM52.9 46.7H61.7C63.3 46.7 64.5 47 65.3 47.7C66.1 48.4 66.5 49.3 66.5 50.5C66.5 51.7 66.1 52.6 65.3 53.3C64.5 54 63.3 54.3 61.7 54.3H52.9V46.7ZM52.9 31.9H53H60C61.3 31.9 62.3 32.2 62.9 32.9C63.5 33.6 63.9 34.5 63.9 35.5C63.9 36.6 63.6 37.5 62.9 38.2C62.3 38.9 61.3 39.2 60 39.2H52.9V31.9Z" fill="#FFF"/></svg>
