<svg xmlns="http://www.w3.org/2000/svg" viewBox="0 0 500 500"><defs><linearGradient id="g" x1="0%" y1="100%" x2="100%" y2="0%"><stop offset="0%" style="stop-color:#8247E5"/><stop offset="100%" style="stop-color:#6525CE"/></linearGradient></defs><path fill="url(#g)" d="M375.3 126.7l-94.5-54.6c-2.6-1.5-5.9-1.5-8.5 0L177.8 126.7c-2.6 1.5-4.2 4.3-4.2 7.3v109.1c0 3 1.7 5.8 4.2 7.3l94.5 54.6c2.6 1.5 5.9 1.5 8.5 0l94.5-54.6c2.6-1.5 4.2-4.3 4.2-7.3V134c0-3-1.6-5.8-4.2-7.3zM124.7 373.3l94.5 54.6c2.6 1.5 5.9 1.5 8.5 0l94.5-54.6c2.6-1.5 4.2-4.3 4.2-7.3V256.9c0-3-1.7-5.8-4.2-7.3l-94.5-54.6c-2.6-1.5-5.9-1.5-8.5 0l-94.5 54.6c-2.6 1.5-4.2 4.3-4.2 7.3V366c0 3 1.7 5.8 4.2 7.3z"/></svg>
