<svg xmlns="http://www.w3.org/2000/svg" viewBox="0 0 1000 1000"><path fill="#836EF9" d="M653.8 351.3H672v-35.5c0-17 7.1-40.7 26.3-40.7 11.1 0 15.9 8.4 15.9 27.3v49h18.2v-35.5c0-23.5 9.2-40.7 25.2-40.7 10.3 0 17 6.7 17 22.5v53.7h18.2v-55.6c0-23.6-8.1-39-27.3-39-15.5 0-29 11.4-36.3 33.5l-3.3-1.4c4.6-13.2-.5-32-19.8-32-16 0-27.3 12.5-36 33.5l-3.6-1.4c5.1-12 5.5-16 5.5-21.1v-9.4h-18.2v92.8zm-105.3-37.8c0 26.3 13.5 39.3 33.9 39.3 20.3 0 32.8-12.4 40.9-33.3l3.5 1.4c-4.4 11.4-5.5 15.1-5.5 20.9v9.4h18.2v-93.1h-18.2v35c0 24.3-14.7 42-33.5 42-14.6 0-21.1-7-21.1-27V258h-18.2v55.5zm-76.9-38.8h21.1v47.4c0 19.2 7.1 29.2 29.3 29.2h18.9v-16.5h-19.7c-6.5 0-10.3-3.8-10.3-10.6v-49.5h25.5v-16.5h-26.6c-7.8 0-10.8.8-21.2 5.5l-1.4-3.6c13.8-5.5 27.7-10.1 27.7-33h-18.2c0 15.1-12.4 29.5-25 29.5v18.1zM377 351.3h18.2v-34.9c0-24.4 14.6-42 33.5-42 14.7 0 21.1 6.8 21.1 26.8v50.1H468V296c0-26.2-13.3-39.3-33.9-39.3-20.1 0-32.8 12.5-40.7 33.5l-3.6-1.4c4.6-11.4 5.5-15.1 5.5-21.1v-9.4H377v93zm-92.5-53.6c2.5-14.6 14.1-25.2 31.7-25.2 16.8 0 27.7 11.1 29.8 25.2h-61.5zm-18.5 7.4c0 24.4 14.9 47.6 49.9 47.6 32.8 0 46.6-23.5 46.6-33.1H346c-2.2 7.9-12.7 17.6-30 17.6-17 0-29.3-9.2-31.7-26h79.1c.3-2.1.3-4 .3-6 0-26.5-17.6-48.4-47.4-48.4-31.5 0-50.3 20.9-50.3 48.3zm-121.9 19.2c0-8.4 6.7-13.8 24.6-14.7 10.8-.6 22.5-1.3 29.2-4.4l-.2 6.2c-.3 13.5-16 25.8-34.4 25.8-12.4 0-19.2-5.3-19.2-12.9zm-18.7 1.6c0 16.5 13.5 27 35.2 27 19 0 33-8.6 39.5-23.3l4.3-9.7 3.3 1.3c-3.5 6.3-5.2 12-5.2 16.6 0 8.1 5.4 13.5 16.2 13.5h10.1v-16.5h-4.6c-6.3 0-8.1-3.8-8.1-10.5v-30.1c0-22.5-16.2-37.6-43.4-37.6-26.6 0-45.5 14.4-45.5 33.9h18.4c.2-10.8 8.7-18.2 25.7-18.2 18.7 0 26.6 7 26.6 19.3v1.9c-5.4 3.2-18.4 3-33.6 3.8-27.2 1.5-38.9 12.1-38.9 28.6zm-76.3-51.2H70v47.4c0 19.2 7.3 29.2 29.3 29.2h19v-16.5H98.7c-6.8 0-10.5-3.5-10.5-10.6v-49.5h25.5v-16.5H87.1c-7.8 0-10.6.8-21.2 5.5l-1.4-3.6c13.6-5.5 27.7-10.1 27.7-33H74c0 15.1-12.2 29.5-24.9 29.5v18.1zm187.7"/></svg>
