<svg xmlns="http://www.w3.org/2000/svg" viewBox="0 0 397 311"><defs><linearGradient id="a" x1="0.55" y1="0.15" x2="0.6" y2="0.9" gradientUnits="objectBoundingBox"><stop offset="0" stop-color="#00ffa3"/><stop offset="1" stop-color="#dc1fff"/></linearGradient></defs><g fill="url(#a)"><path d="M64.6 237.9c2.4-2.4 5.7-3.8 9.2-3.8h317.4c5.8 0 8.7 7 4.6 11.1l-62.7 62.7c-2.4 2.4-5.7 3.8-9.2 3.8H6.5c-5.8 0-8.7-7-4.6-11.1l62.7-62.7zm263.8-118.4c-2.4 2.4-5.7 3.8-9.2 3.8H2.4c-5.8 0-8.7-7-4.6-11.1l62.7-62.7c2.4-2.4 5.7-3.8 9.2-3.8h317.4c5.8 0 8.7 7 4.6 11.1l-62.7 62.7zM64.6 1.4C67 1.4 70.3 3.8 73.8 3.8h317.4c5.8 0 8.7 7 4.6 11.1l-62.7 62.7c-2.4 2.4-5.7 3.8-9.2 3.8H6.5c-5.8 0-8.7-7-4.6-11.1L64.6 1.4z"/></g></svg>
